<?xml version="1.0" encoding="UTF-8"?>
<svg id="lightmode" xmlns="http://www.w3.org/2000/svg" viewBox="0 0 512 512">
  <defs>
    <style>
      .cls-1 {
        fill: #fff;
      }

      .cls-2 {
        fill: #ffad00;
      }

      .cls-3 {
        fill: #100a0c;
      }

      .cls-4 {
        fill: #0d1c49;
      }

      .cls-5 {
        fill: #5053d3;
      }
    </style>
  </defs>
  <path class="cls-1" d="m368.14,51.88l-217.28-31.85c-35.86-5.26-69.19,19.55-74.45,55.41l-33.46,228.27-10.62,72.44c-5.26,35.86,19.55,69.19,55.41,74.45l282.21,41.37c35.86,5.26,69.19-19.55,74.45-55.41l19.47-132.84,15.09-102.94c10.51-71.72-39.1-138.38-110.82-148.89Z"/>
  <g>
    <g>
      <path class="cls-2" d="m389.46,217.56h-50.91l-6.21,42.36c-1.68,11.43-12.3,19.35-23.74,17.67l-89.99-13.19c-11.43-1.68-19.35-12.3-17.67-23.74l3.39-23.1h-12.35c-3.62,0-6.3,3.36-5.49,6.89l18.9,92.75c.59,2.56,2.86,4.37,5.49,4.37h153.71c2.48,0,4.67-1.62,5.39-4l24.88-92.75c1.09-3.62-1.61-7.26-5.39-7.26Z"/>
      <path class="cls-5" d="m343.36,184.74c3.35-22.87-12.47-44.13-35.34-47.48l-69.29-10.16c-11.43-1.68-22.06,6.23-23.74,17.67l-10.67,72.79h134.22l4.81-32.83Z"/>
      <path class="cls-2" d="m218.61,264.4l89.99,13.19c11.43,1.68,22.06-6.23,23.74-17.67l6.21-42.36h-134.22l-3.39,23.1c-1.68,11.43,6.23,22.06,17.67,23.74Z"/>
      <path class="cls-4" d="m218.61,264.4l89.99,13.19c11.43,1.68,22.06-6.23,23.74-17.67l6.21-42.36h-134.22l-3.39,23.1c-1.68,11.43,6.23,22.06,17.67,23.74Z"/>
    </g>
    <circle class="cls-2" cx="223.56" cy="375.59" r="23.35" transform="translate(-200.1 268.09) rotate(-45)"/>
    <circle class="cls-2" cx="349.91" cy="375.59" r="23.35" transform="translate(-117.1 162.49) rotate(-22.5)"/>
    <path class="cls-3" d="m187.79,310.06h162.12c3.79,0,7.11-2.55,8.09-6.21l27.46-102.66c.67-2.51.14-5.2-1.45-7.26-1.58-2.06-4.04-3.27-6.64-3.27h-212.58l-8.82-32.99c-.54-2.04-1.84-3.79-3.62-4.92l-42.6-26.88c-3.91-2.47-9.08-1.3-11.55,2.61-2.47,3.91-1.3,9.08,2.61,11.55l39.82,25.13,9.64,36.03,25.85,96.62-12.28,8.7c-2.22,1.57-3.53,4.12-3.53,6.83v24.23c0,4.62,3.75,8.37,8.37,8.37h31.11c-12.41,2.42-21.81,13.37-21.81,26.48,0,14.88,12.1,26.98,26.98,26.98s26.98-12.1,26.98-26.98c0-13.11-9.4-24.06-21.81-26.48h114.86c-12.41,2.42-21.81,13.37-21.81,26.48,0,14.88,12.1,26.98,26.98,26.98s26.98-12.1,26.98-26.98c0-13.11-9.4-24.06-21.81-26.48h34.15c4.62,0,8.37-3.75,8.37-8.37s-3.75-8.37-8.37-8.37h-192.43v-11.53l10.75-7.61Zm27.4,62.36c0,5.65-4.59,10.24-10.24,10.24s-10.24-4.59-10.24-10.24,4.59-10.24,10.24-10.24,10.24,4.59,10.24,10.24Zm125.2,0c0,5.65-4.59,10.24-10.24,10.24s-10.24-4.59-10.24-10.24,4.59-10.24,10.24-10.24,10.24,4.59,10.24,10.24Zm26.07-165.02l-22.98,85.91h-151.24l-22.98-85.91h197.2Z"/>
  </g>
</svg>