<?xml version="1.0" encoding="utf-8"?>
<!-- Generator: Adobe Illustrator 27.7.0, SVG Export Plug-In . SVG Version: 6.00 Build 0)  -->
<svg version="1.1" id="shop" xmlns="http://www.w3.org/2000/svg" xmlns:xlink="http://www.w3.org/1999/xlink" x="0px" y="0px"
	 viewBox="0 0 289.8 73.7" style="enable-background:new 0 0 289.8 73.7;" xml:space="preserve">
<style type="text/css">
	.st0{clip-path:url(#SVGID_00000072273432762041021620000006401847687889010874_);}
	.st1{fill:#1C80FF;}
	.st2{fill:#232323;}
	.st3{fill:#FF1887;}
	.st4{fill:#FF8D00;}
	.st5{fill:#FFD41C;}
</style>
<g>
	<defs>
		<rect id="SVGID_1_" width="289.8" height="73.7"/>
	</defs>
	<clipPath id="SVGID_00000056412371389093389720000002158885161865609107_">
		<use xlink:href="#SVGID_1_"  style="overflow:visible;"/>
	</clipPath>
	<g id="Group_1753" style="clip-path:url(#SVGID_00000056412371389093389720000002158885161865609107_);">
		<path id="Path_123" class="st1" d="M85.1,5.8c-0.2-1.1-0.6-2.1-1.2-3c-0.7-0.9-1.6-1.5-2.6-1.8c-1.4-0.5-2.9-0.7-4.4-0.6H63.4
			v28.2h7.1v-9.2h6.3c1.5,0.1,3.1-0.2,4.6-0.7c1-0.4,1.9-1.1,2.6-2c0.6-0.9,1-1.9,1.2-3c0.2-1.3,0.3-2.5,0.3-3.8
			C85.5,8.5,85.4,7.1,85.1,5.8 M78.2,11.9c0,0.5-0.2,0.9-0.5,1.2c-0.3,0.3-0.8,0.5-1.3,0.6c-0.8,0.1-1.5,0.2-2.3,0.2h-3.6V5.7h3.7
			c0.8,0,1.5,0,2.3,0.1c0.5,0.1,0.9,0.3,1.2,0.6c0.3,0.4,0.5,0.8,0.5,1.3c0.1,0.7,0.1,1.4,0.1,2.1C78.3,10.5,78.3,11.2,78.2,11.9"/>
		<path id="Path_124" class="st1" d="M89.7,28.5V0.3h7.1v22.5h11v5.7H89.7z"/>
		<path id="Path_125" class="st1" d="M127.8,0.3h-9.7l-8.9,28.2h7.1l1.6-5.5h10l1.7,5.5h7.2L127.8,0.3z M119.3,17.6l3.3-11.2h0.3
			l3.4,11.2H119.3z"/>
		<path id="Path_126" class="st1" d="M143.7,28.5v-9.7l-9.4-18.5h7.3l5.6,11.8h0.3l5.5-11.8h7.2l-9.4,18.5v9.7L143.7,28.5z"/>
		<path id="Path_127" class="st1" d="M165,19c-0.1-1.4-0.3-2.8-0.4-4.2c-0.1-1.4-0.3-2.8-0.4-4.2c-0.1-1.3-0.2-2.6-0.3-3.7
			s-0.1-2.1-0.2-3s-0.1-1.4-0.1-1.8V0.3h7.6v1.8c0,0.4,0,1-0.1,1.8c0,0.8-0.1,1.8-0.2,3c-0.1,1.1-0.2,2.4-0.3,3.7
			c-0.1,1.3-0.3,2.7-0.4,4.2c-0.1,1.4-0.3,2.8-0.4,4.2H165z"/>
		<rect id="Rectangle_420" x="163.9" y="22.6" class="st1" width="7" height="5.9"/>
		<path id="Path_128" class="st2" d="M64.8,65.5V37.3h3.5l10.7,24h0.2l10.7-24h3.4v28.2h-2.5V41.7h-0.2L80.1,65.5h-2L67.5,41.7h-0.2
			v23.8H64.8z"/>
		<path id="Path_129" class="st2" d="M117.2,49c-0.1-0.8-0.3-1.5-0.7-2.3c-0.3-0.6-0.8-1.1-1.4-1.4c-0.8-0.4-1.6-0.7-2.4-0.8
			c-1.2-0.2-2.4-0.3-3.6-0.2c-1.4,0-2.8,0-4.1,0.1c-1.3,0.1-2.4,0.2-3.4,0.4v2.1c0.5-0.1,1.2-0.2,1.9-0.2c0.8-0.1,1.6-0.1,2.4-0.2
			c0.8,0,1.5-0.1,2.2-0.1c1.2,0,2.3,0,3.5,0.1c0.7,0,1.5,0.3,2.1,0.7c0.5,0.5,0.9,1.1,1,1.8c0.2,1.1,0.3,2.1,0.2,3.2v1.6
			c-0.7,0-1.5,0-2.4-0.1c-0.8,0-1.7,0-2.5-0.1c-0.8,0-1.5,0-2.2-0.1s-1.1,0-1.4,0c-1.3-0.1-2.6,0.1-3.8,0.6c-0.9,0.3-1.6,1-1.9,1.9
			c-0.4,1.2-0.6,2.4-0.5,3.7c-0.1,1.3,0.2,2.6,0.8,3.7c0.5,0.9,1.4,1.5,2.4,1.8c1.3,0.4,2.7,0.5,4,0.5c1,0,1.9-0.1,2.9-0.2
			c1-0.1,1.9-0.5,2.7-1c0.9-0.5,1.5-1.4,1.9-2.3h0.2l0.1,3.2h2.2V52.2C117.4,51.1,117.4,50.1,117.2,49 M114.9,56.9
			c0,0.8-0.1,1.7-0.2,2.5c-0.1,0.7-0.4,1.5-0.7,2.1c-0.3,0.6-0.8,1.1-1.4,1.4c-0.7,0.3-1.4,0.5-2.1,0.6c-0.8,0.1-1.6,0.1-2.5,0.1
			l0,0c-1.1,0-2.3-0.1-3.4-0.3c-0.7-0.1-1.3-0.6-1.6-1.2c-0.3-0.8-0.5-1.7-0.4-2.6c0-0.9,0.1-1.8,0.4-2.6c0.2-0.6,0.7-1,1.4-1.1
			c0.9-0.2,1.9-0.3,2.8-0.3h7.7L114.9,56.9z"/>
		<path id="Path_130" class="st2" d="M107.4,65.8L107.4,65.8z"/>
		<path id="Path_131" class="st2" d="M125,65.5V44.6h2.2l0.2,4.2h0.2c0.2-1.1,0.8-2.1,1.5-2.8c0.7-0.7,1.5-1.1,2.4-1.4
			c1-0.2,2.1-0.4,3.1-0.3v2.5c-1.5-0.1-3.1,0.2-4.4,1c-1,0.7-1.8,1.7-2.1,2.9c-0.4,1.6-0.6,3.2-0.6,4.8v10L125,65.5z"/>
		<path id="Path_132" class="st2" d="M139.5,65.5V35h2.5v18.7h3l8-9.2h2.9l-8.9,10.1l9,10.8h-3l-8-9.5h-3v9.5L139.5,65.5z"/>
		<path id="Path_133" class="st2" d="M168,65.8L168,65.8z"/>
		<path id="Path_134" class="st2" d="M176.1,55.1c0-1.6,0-3-0.1-4.2c-0.1-1-0.2-2.1-0.5-3.1c-0.2-0.8-0.7-1.5-1.3-2
			c-0.7-0.6-1.5-0.9-2.4-1.1c-1.3-0.3-2.5-0.4-3.8-0.3c-1.7-0.1-3.4,0.1-5.1,0.6c-1.1,0.3-2,0.9-2.7,1.8c-0.6,1-1,2.2-1.1,3.3
			c-0.2,1.7-0.3,3.4-0.2,5.1c0,1.7,0.1,3.1,0.2,4.3c0.1,1.1,0.3,2.1,0.7,3.1c0.3,0.8,0.8,1.5,1.5,2c0.8,0.5,1.7,0.9,2.7,1
			c1.4,0.2,2.7,0.3,4.1,0.3c0.9,0,1.8,0,2.7-0.1c0.9,0,1.8-0.1,2.6-0.2c0.8-0.1,1.5-0.2,2.1-0.3v-2.1c-0.6,0.1-1.3,0.2-2.1,0.3
			c-0.8,0.1-1.6,0.1-2.4,0.2c-0.8,0.1-1.6,0.1-2.3,0.1c-1.3,0-2.6-0.1-3.9-0.3c-0.8-0.1-1.6-0.6-2.1-1.2c-0.5-0.7-0.8-1.5-0.9-2.4
			c-0.2-1.3-0.2-2.6-0.2-3.9h14.8L176.1,55.1z M173.7,54h-12.4c0-1.3,0.1-2.6,0.2-3.9c0.1-0.8,0.4-1.6,0.9-2.3c0.5-0.6,1.2-1,2-1.1
			c1.1-0.2,2.3-0.3,3.5-0.3c1,0,1.9,0.1,2.9,0.2c0.7,0.1,1.3,0.4,1.8,0.9c0.5,0.6,0.8,1.3,0.9,2.1c0.2,1.2,0.3,2.5,0.3,3.7L173.7,54
			L173.7,54z"/>
		<path id="Path_135" class="st2" d="M184.4,65.5V46.8h-4.3v-2.2h4.3v-6.1h2.5v6.1h5.1v2.2h-5.1v18.7H184.4z"/>
		<path id="Path_136" class="st2" d="M214.2,49.7c-0.1-1.2-0.6-2.3-1.2-3.3c-0.6-0.8-1.4-1.4-2.4-1.7c-1.3-0.4-2.6-0.5-4-0.5
			c-1,0-2,0.1-2.9,0.2c-0.9,0.1-1.8,0.5-2.5,1c-0.8,0.6-1.4,1.4-1.7,2.3h-0.2l-0.1-3.2h-2.2v29.1h2.5v-11h0.2
			c0.3,0.8,0.8,1.4,1.5,1.9c0.7,0.5,1.5,0.8,2.4,1c1.1,0.2,2.2,0.3,3.2,0.3c1.3,0,2.7-0.1,4-0.5c1-0.3,1.8-0.9,2.4-1.7
			c0.6-1,1.1-2.1,1.2-3.3c0.2-1.8,0.4-3.5,0.3-5.3C214.5,53.3,214.4,51.5,214.2,49.7 M211.8,59.6c-0.1,0.9-0.4,1.8-0.9,2.6
			c-0.5,0.6-1.2,1-1.9,1.1c-1.1,0.2-2.2,0.3-3.4,0.3l0,0c-1.3,0.1-2.6-0.2-3.8-0.7c-1-0.5-1.7-1.4-2-2.4c-0.2-0.7-0.3-1.5-0.4-2.3
			c-0.1-0.9-0.1-2-0.1-3.2c0-1.2,0-2.2,0.1-3.2c0.1-0.9,0.2-1.7,0.5-2.5c0.3-1,1-1.8,1.9-2.2c1.2-0.5,2.5-0.7,3.8-0.7
			c1.1,0,2.3,0.1,3.4,0.3c0.8,0.1,1.4,0.5,1.9,1.1c0.5,0.8,0.8,1.7,0.9,2.6c0.2,1.5,0.2,3,0.2,4.5C212,56.6,211.9,58.1,211.8,59.6"
			/>
		<rect id="Rectangle_421" x="221.1" y="35" class="st2" width="2.5" height="30.5"/>
		<path id="Path_137" class="st2" d="M246.9,49c-0.1-0.8-0.3-1.5-0.7-2.3c-0.3-0.6-0.8-1.1-1.4-1.4c-0.8-0.4-1.6-0.7-2.4-0.8
			c-1.2-0.2-2.4-0.3-3.6-0.2c-1.4,0-2.8,0-4.1,0.1c-1.3,0.1-2.4,0.2-3.4,0.4v2.1c0.5-0.1,1.2-0.2,1.9-0.2c0.8-0.1,1.6-0.1,2.4-0.2
			c0.8,0,1.5-0.1,2.2-0.1c1.2,0,2.3,0,3.5,0.1c0.7,0,1.5,0.3,2.1,0.7c0.5,0.5,0.9,1.1,1,1.8c0.2,1.1,0.3,2.1,0.2,3.2v1.6
			c-0.7,0-1.5,0-2.4-0.1c-0.8,0-1.7,0-2.5-0.1c-0.8,0-1.5,0-2.2-0.1c-0.6,0-1.1,0-1.4,0c-1.3-0.1-2.6,0.1-3.8,0.6
			c-0.9,0.3-1.6,1-1.9,1.9c-0.4,1.2-0.6,2.4-0.5,3.7c-0.1,1.3,0.2,2.6,0.8,3.7c0.5,0.9,1.4,1.5,2.4,1.8c1.3,0.4,2.7,0.5,4,0.5
			c1,0,1.9-0.1,2.9-0.2c1-0.1,1.9-0.5,2.7-1c0.9-0.5,1.5-1.4,1.9-2.3h0.2l0.1,3.2h2.2V52.2C247.1,51.1,247,50.1,246.9,49
			 M244.6,56.9c0,0.8-0.1,1.7-0.2,2.5c-0.1,0.7-0.4,1.5-0.7,2.1c-0.3,0.6-0.8,1.1-1.4,1.4c-0.7,0.3-1.4,0.5-2.1,0.6
			c-0.8,0.1-1.6,0.1-2.5,0.1l0,0c-1.1,0-2.3-0.1-3.4-0.3c-0.7-0.1-1.3-0.6-1.6-1.2c-0.3-0.8-0.5-1.7-0.4-2.6c0-0.9,0.1-1.8,0.4-2.6
			c0.2-0.6,0.7-1,1.4-1.1c0.9-0.2,1.8-0.3,2.8-0.3h7.7L244.6,56.9z"/>
		<path id="Path_138" class="st2" d="M262.1,65.8c-1.3,0-2.6-0.1-3.9-0.4c-0.9-0.2-1.7-0.6-2.4-1.2c-0.6-0.6-1.1-1.3-1.4-2.1
			c-0.3-1-0.5-2-0.6-3c-0.1-1.2-0.1-2.5-0.1-4.1c0-1.4,0.1-2.8,0.2-4.3c0.1-1,0.3-2.1,0.7-3.1c0.3-0.8,0.8-1.5,1.4-2
			c0.7-0.5,1.5-0.9,2.4-1.1c1.2-0.3,2.3-0.4,3.5-0.3c0.9,0,1.9,0,2.9,0.1c0.9,0.1,1.7,0.2,2.6,0.3v2.1c-0.8-0.2-1.6-0.3-2.4-0.3
			c-0.9-0.1-1.8-0.1-2.5-0.1c-1.1,0-2.2,0.1-3.3,0.4c-0.8,0.2-1.4,0.7-1.9,1.3c-0.5,0.8-0.8,1.7-0.9,2.6c-0.2,1.4-0.2,2.9-0.2,4.3
			c0,1.5,0.1,3,0.2,4.5c0.1,0.9,0.4,1.8,0.9,2.6c0.5,0.6,1.2,1.1,1.9,1.2c1.1,0.2,2.2,0.4,3.4,0.3c0.8,0,1.7,0,2.6-0.1
			c0.8-0.1,1.6-0.2,2.4-0.3v2.1c-0.8,0.2-1.7,0.3-2.5,0.4C264.1,65.8,263.1,65.8,262.1,65.8L262.1,65.8z"/>
		<path id="Path_139" class="st2" d="M281.7,65.8L281.7,65.8z"/>
		<path id="Path_140" class="st2" d="M289.8,55.1c0-1.6,0-3-0.1-4.2c-0.1-1-0.2-2.1-0.5-3.1c-0.2-0.8-0.7-1.5-1.3-2
			c-0.7-0.6-1.5-0.9-2.4-1.1c-1.3-0.3-2.5-0.4-3.8-0.3c-1.7-0.1-3.4,0.1-5.1,0.6c-1.1,0.3-2,0.9-2.7,1.8c-0.6,1-1,2.2-1.1,3.3
			c-0.2,1.7-0.3,3.4-0.2,5.1c0,1.7,0.1,3.1,0.2,4.3c0.1,1.1,0.3,2.1,0.7,3.1c0.3,0.8,0.8,1.5,1.5,2c0.8,0.5,1.7,0.9,2.7,1
			c1.4,0.2,2.7,0.3,4.1,0.3c0.9,0,1.8,0,2.7-0.1s1.8-0.1,2.6-0.2c0.8-0.1,1.5-0.2,2-0.3v-2.1c-0.6,0.1-1.3,0.2-2.1,0.3
			s-1.6,0.1-2.4,0.2c-0.8,0.1-1.6,0.1-2.3,0.1c-1.3,0-2.6-0.1-3.9-0.3c-0.8-0.1-1.6-0.6-2.1-1.2c-0.5-0.7-0.8-1.5-0.9-2.4
			c-0.2-1.3-0.2-2.6-0.2-3.9h14.8L289.8,55.1z M287.4,54H275c0-1.3,0-2.6,0.2-3.9c0.1-0.8,0.4-1.6,0.9-2.3c0.5-0.6,1.2-1,2-1.1
			c1.1-0.2,2.3-0.3,3.5-0.3c1,0,1.9,0.1,2.9,0.2c0.7,0.1,1.3,0.4,1.8,0.9c0.5,0.6,0.8,1.3,0.9,2.1c0.2,1.2,0.3,2.5,0.3,3.7L287.4,54
			L287.4,54z"/>
		<path id="Path_141" class="st3" d="M13.9,66.6L0,52.3V6.7l13.9-5.9L13.9,66.6z"/>
		<path id="Path_142" class="st1" d="M52.5,16.4l-5.9,14L16.7,0h19.4L52.5,16.4z"/>
		<path id="Path_143" class="st4" d="M16.5,43.1V27.7L36,19.6l10.6,10.8L16.5,43.1z"/>
		<path id="Path_144" class="st5" d="M13.9,0.8l10.6,10.8L13.9,16L13.9,0.8z"/>
	</g>
</g>
</svg>
